<svg width="164" height="42" viewBox="0 0 164 42" fill="none" xmlns="http://www.w3.org/2000/svg">
<path d="M53.2 35.4V8.30807H56.6547L71.8553 29.2907L70.2188 29.5452V8.30807H74.4735V35.4H71.0189L55.9274 14.2719L57.4911 13.981V35.4H53.2ZM88.1925 35.8364C86.2288 35.8364 84.4833 35.3879 82.956 34.4909C81.4529 33.5696 80.2771 32.3332 79.4286 30.7816C78.58 29.2058 78.1558 27.4482 78.1558 25.5087C78.1558 23.5208 78.58 21.7631 79.4286 20.2358C80.3013 18.7085 81.465 17.5084 82.9196 16.6357C84.3742 15.7387 86.0227 15.2902 87.8652 15.2902C89.3441 15.2902 90.6653 15.5447 91.829 16.0538C92.9927 16.5629 93.9746 17.266 94.7746 18.163C95.5746 19.0357 96.1807 20.0418 96.5928 21.1813C97.0292 22.3207 97.2474 23.5329 97.2474 24.8178C97.2474 25.1329 97.2353 25.4602 97.211 25.7996C97.1868 26.139 97.1383 26.4542 97.0656 26.7451H81.3923V23.4723H94.7382L92.7745 24.9632C93.0169 23.7753 92.9321 22.7207 92.52 21.7995C92.1321 20.854 91.526 20.1146 90.7017 19.5812C89.9017 19.0236 88.9562 18.7448 87.8652 18.7448C86.7743 18.7448 85.8045 19.0236 84.956 19.5812C84.1075 20.1146 83.4529 20.8904 82.9923 21.9086C82.5317 22.9026 82.3499 24.1147 82.4468 25.5451C82.3256 26.8785 82.5075 28.0421 82.9923 29.0361C83.5014 30.0301 84.2045 30.8059 85.1015 31.3635C86.0227 31.9211 87.0652 32.1999 88.2289 32.1999C89.4168 32.1999 90.4229 31.9332 91.2472 31.3999C92.0957 30.8665 92.7624 30.1756 93.2473 29.327L96.5928 30.9635C96.2049 31.8847 95.5989 32.7211 94.7746 33.4727C93.9746 34.2 93.0048 34.7818 91.8654 35.2182C90.7502 35.6303 89.5259 35.8364 88.1925 35.8364ZM110.022 35.8364C108.131 35.8364 106.397 35.3879 104.822 34.4909C103.27 33.5939 102.034 32.3696 101.112 30.818C100.191 29.2664 99.7305 27.5088 99.7305 25.5451C99.7305 23.5571 100.191 21.7995 101.112 20.2722C102.034 18.7206 103.27 17.5084 104.822 16.6357C106.373 15.7387 108.107 15.2902 110.022 15.2902C111.961 15.2902 113.695 15.7387 115.222 16.6357C116.774 17.5084 117.998 18.7206 118.895 20.2722C119.816 21.7995 120.277 23.5571 120.277 25.5451C120.277 27.533 119.816 29.3028 118.895 30.8544C117.974 32.4059 116.737 33.6302 115.186 34.5272C113.634 35.4 111.913 35.8364 110.022 35.8364ZM110.022 32.0181C111.185 32.0181 112.216 31.7393 113.113 31.1817C114.01 30.6241 114.713 29.8604 115.222 28.8907C115.755 27.8967 116.022 26.7815 116.022 25.5451C116.022 24.3087 115.755 23.2056 115.222 22.2359C114.713 21.2661 114.01 20.5025 113.113 19.9449C112.216 19.3873 111.185 19.1085 110.022 19.1085C108.882 19.1085 107.852 19.3873 106.931 19.9449C106.034 20.5025 105.319 21.2661 104.785 22.2359C104.276 23.2056 104.022 24.3087 104.022 25.5451C104.022 26.7815 104.276 27.8967 104.785 28.8907C105.319 29.8604 106.034 30.6241 106.931 31.1817C107.852 31.7393 108.882 32.0181 110.022 32.0181ZM131.715 35.6182C129.655 35.6182 128.055 35.0364 126.915 33.8727C125.776 32.709 125.206 31.0726 125.206 28.9634V19.4358H121.751V15.7265H122.297C123.218 15.7265 123.933 15.4599 124.442 14.9265C124.952 14.3931 125.206 13.6658 125.206 12.7446V11.2173H129.315V15.7265H133.788V19.4358H129.315V28.7816C129.315 29.4604 129.424 30.0422 129.643 30.5271C129.861 30.9877 130.212 31.3514 130.697 31.618C131.182 31.8605 131.812 31.9817 132.588 31.9817C132.782 31.9817 133 31.9696 133.243 31.9453C133.485 31.9211 133.716 31.8968 133.934 31.8726V35.4C133.594 35.4485 133.219 35.497 132.806 35.5455C132.394 35.5939 132.031 35.6182 131.715 35.6182ZM137.217 35.4V15.7265H141.326V35.4H137.217ZM137.217 13.0355V8.30807H141.326V13.0355H137.217ZM143.439 35.4L150.312 25.5451L143.439 15.7265H148.276L153.912 23.945H151.585L157.222 15.7265H162.058L155.149 25.5451L162.022 35.4H157.185L151.621 27.1451H153.876L148.276 35.4H143.439Z" fill="#02060A"/>
<rect width="42" height="42" rx="4.2" fill="#F94D00"/>
<g clip-path="url(#clip0_15_79)">
<path d="M9.54541 10.1882H18.6592L24.9422 16.4732V23.2409L14.6903 13.0433L14.6583 31.8128H9.54541V10.1882Z" fill="#02060A"/>
<path d="M32.4547 31.8127H23.3428L17.0608 25.5268V18.7562L27.3127 28.9519L27.3438 10.1872H32.4547V31.8127Z" fill="#02060A"/>
</g>
<defs>
<clipPath id="clip0_15_79">
<rect width="22.9091" height="22.9091" fill="white" transform="translate(9.54541 9.54546)"/>
</clipPath>
</defs>
</svg>
