<svg xmlns="http://www.w3.org/2000/svg" width="177" height="40" viewBox="0 0 177 40" fill="none"><path d="M76.0967 39.4667C75.1016 39.4667 74.3019 39.0578 73.6977 38.24L61.3824 22.0267L66.2338 17.0667L78.9756 33.92C79.4732 34.5956 79.722 35.3244 79.722 36.1067C79.722 37.1022 79.3488 37.92 78.6025 38.56C77.8561 39.1644 77.0208 39.4667 76.0967 39.4667ZM76.7365 1.86666C77.5895 1.86666 78.2826 2.22222 78.8157 2.93333C79.3844 3.60889 79.6687 4.30222 79.6687 5.01333C79.6687 5.76 79.3488 6.45333 78.7091 7.09333L56.371 28.48L56.1044 20.8533L74.1242 3.09333C74.9416 2.27555 75.8124 1.86666 76.7365 1.86666ZM53.7053 39.4667C52.7101 39.4667 51.9104 39.1644 51.3062 38.56C50.702 37.92 50.3999 37.1378 50.3999 36.2133V5.38666C50.3999 4.46222 50.7198 3.69778 51.3595 3.09333C51.9993 2.45333 52.8168 2.13333 53.8119 2.13333C54.8071 2.13333 55.589 2.45333 56.1577 3.09333C56.7619 3.69778 57.064 4.46222 57.064 5.38666V36.2133C57.064 37.1378 56.7619 37.92 56.1577 38.56C55.5535 39.1644 54.736 39.4667 53.7053 39.4667Z" fill="white"></path><path d="M89.7594 36.2133C89.7594 37.1378 89.4573 37.92 88.8531 38.56C88.2489 39.1644 87.4848 39.4667 86.5607 39.4667C85.6366 39.4667 84.8724 39.1644 84.2682 38.56C83.664 37.92 83.3619 37.1378 83.3619 36.2133V14.1867C83.3619 13.2622 83.664 12.4978 84.2682 11.8933C84.8724 11.2533 85.6366 10.9333 86.5607 10.9333C87.4848 10.9333 88.2489 11.2533 88.8531 11.8933C89.4573 12.4978 89.7594 13.2622 89.7594 14.1867V36.2133ZM86.5073 7.46667C85.2989 7.46667 84.4459 7.27111 83.9483 6.88C83.4507 6.48889 83.2019 5.79555 83.2019 4.8V3.78667C83.2019 2.75555 83.4685 2.06222 84.0016 1.70667C84.5703 1.31555 85.4233 1.12 86.5607 1.12C87.8046 1.12 88.6754 1.31555 89.173 1.70667C89.6706 2.09778 89.9194 2.79111 89.9194 3.78667V4.8C89.9194 5.83111 89.6528 6.54222 89.1197 6.93333C88.5866 7.28889 87.7158 7.46667 86.5073 7.46667Z" fill="white"></path><path d="M118.619 0C119.543 0 120.307 0.302222 120.912 0.906664C121.516 1.51111 121.818 2.29333 121.818 3.25333V36.2133C121.818 37.1378 121.516 37.92 120.912 38.56C120.307 39.1644 119.543 39.4667 118.619 39.4667C117.695 39.4667 116.931 39.1644 116.327 38.56C115.723 37.92 115.42 37.1378 115.42 36.2133V33.6L116.593 34.08C116.593 34.5422 116.345 35.1111 115.847 35.7867C115.349 36.4267 114.674 37.0667 113.821 37.7067C112.968 38.3467 111.955 38.8978 110.782 39.36C109.645 39.7867 108.401 40 107.05 40C104.598 40 102.377 39.3778 100.386 38.1333C98.3959 36.8533 96.8142 35.1111 95.6414 32.9067C94.504 30.6667 93.9353 28.1067 93.9353 25.2267C93.9353 22.3111 94.504 19.7511 95.6414 17.5467C96.8142 15.3067 98.3781 13.5644 100.333 12.32C102.288 11.04 104.456 10.4 106.837 10.4C108.365 10.4 109.769 10.6311 111.049 11.0933C112.328 11.5556 113.43 12.1422 114.354 12.8533C115.314 13.5644 116.042 14.2933 116.54 15.04C117.073 15.7511 117.34 16.3556 117.34 16.8533L115.42 17.5467V3.25333C115.42 2.32889 115.723 1.56444 116.327 0.959997C116.931 0.319999 117.695 0 118.619 0ZM107.85 34.1333C109.414 34.1333 110.782 33.7422 111.955 32.96C113.128 32.1778 114.034 31.1111 114.674 29.76C115.349 28.4089 115.687 26.8978 115.687 25.2267C115.687 23.52 115.349 21.9911 114.674 20.64C114.034 19.2889 113.128 18.2222 111.955 17.44C110.782 16.6578 109.414 16.2667 107.85 16.2667C106.322 16.2667 104.971 16.6578 103.798 17.44C102.625 18.2222 101.701 19.2889 101.026 20.64C100.386 21.9911 100.066 23.52 100.066 25.2267C100.066 26.8978 100.386 28.4089 101.026 29.76C101.701 31.1111 102.625 32.1778 103.798 32.96C104.971 33.7422 106.322 34.1333 107.85 34.1333Z" fill="white"></path><path d="M145.858 33.6C146.711 33.6 147.422 33.8844 147.991 34.4533C148.56 34.9867 148.844 35.68 148.844 36.5333C148.844 37.3511 148.56 38.0444 147.991 38.6133C147.422 39.1822 146.711 39.4667 145.858 39.4667H128.692C127.803 39.4667 127.092 39.1467 126.559 38.5067C126.026 37.8667 125.777 37.2267 125.813 36.5867C125.848 36.0533 125.919 35.5911 126.026 35.2C126.133 34.7733 126.399 34.2933 126.826 33.76L140.101 16.5867L139.994 17.3333H129.171C128.318 17.3333 127.608 17.0489 127.039 16.48C126.47 15.9111 126.186 15.2 126.186 14.3467C126.186 13.5289 126.47 12.8533 127.039 12.32C127.608 11.7511 128.318 11.4667 129.171 11.4667H145.592C146.409 11.4667 147.102 11.7689 147.671 12.3733C148.24 12.9778 148.489 13.7422 148.417 14.6667C148.382 15.0222 148.311 15.3778 148.204 15.7333C148.133 16.0889 147.902 16.5156 147.511 17.0133L134.449 33.92V33.6H145.858Z" fill="white"></path><path d="M173.601 10.9333C174.525 10.9333 175.289 11.2533 175.894 11.8933C176.498 12.4978 176.8 13.2622 176.8 14.1867V27.7333C176.8 31.5022 175.751 34.4889 173.654 36.6933C171.557 38.8978 168.536 40 164.591 40C160.646 40 157.625 38.8978 155.528 36.6933C153.467 34.4889 152.436 31.5022 152.436 27.7333V14.1867C152.436 13.2622 152.738 12.4978 153.342 11.8933C153.946 11.2533 154.711 10.9333 155.635 10.9333C156.559 10.9333 157.323 11.2533 157.927 11.8933C158.531 12.4978 158.833 13.2622 158.833 14.1867V27.7333C158.833 29.9022 159.313 31.52 160.273 32.5867C161.233 33.6178 162.672 34.1333 164.591 34.1333C166.546 34.1333 168.003 33.6178 168.963 32.5867C169.923 31.52 170.402 29.9022 170.402 27.7333V14.1867C170.402 13.2622 170.704 12.4978 171.309 11.8933C171.913 11.2533 172.677 10.9333 173.601 10.9333Z" fill="white"></path><path d="M5.48765 17.2868C8.72573 17.9822 11.9953 18.3911 15.3123 18.2906C17.4873 18.2248 19.6374 17.952 21.6855 17.1686C25.1444 15.8456 27.835 13.5196 30.0768 10.6317C31.0613 9.36341 31.8849 7.98984 32.6166 6.56123C32.7083 6.3822 32.8106 6.20861 32.9536 6.04893C32.9206 7.05572 32.7393 8.03283 32.5027 8.9964C30.9921 15.1467 28.5556 20.8735 24.5402 25.8275C20.8783 30.3454 16.6308 34.1992 11.3803 36.825C9.28988 37.8704 7.11905 38.7024 4.76421 38.943C3.72529 39.0491 2.69719 39.0024 1.66064 38.7647C1.69257 38.7207 1.71171 38.6631 1.74317 38.6553C4.98584 37.8525 7.69466 36.0915 10.1567 33.9152C13.6249 30.8493 16.0308 27.0995 17.2856 22.6292C17.3948 22.2401 17.6431 21.788 17.4934 21.4613C17.3248 21.0933 16.7791 21.2384 16.3997 21.1844C12.9589 20.6942 9.68371 19.6933 6.60589 18.0668C6.56492 18.0451 6.51377 18.0427 6.46739 18.0313C6.14589 17.7765 5.7288 17.6474 5.48765 17.2868Z" fill="white"></path><path d="M17.5278 12.6353C17.3211 12.1687 17.2529 11.7234 17.1754 11.2872C17.1281 11.0209 17.0141 10.9358 16.7623 10.9375C16.3418 10.9404 15.921 10.9268 15.5007 10.9107C15.3052 10.9032 15.2039 10.9576 15.2005 11.1773C15.1953 11.5166 15.0274 11.9316 15.1674 12.1794C15.5028 12.7731 15.3447 13.2468 15.1721 13.8412C14.9893 14.4713 15.1521 15.1831 15.3288 15.9257C14.7559 15.7101 14.3535 15.3928 14.022 14.973C13.9036 14.8231 13.9217 14.6731 14.0201 14.5251C14.1453 14.3368 14.2635 14.1422 14.405 13.9667C14.6186 13.702 14.8565 13.4775 14.4742 13.1373C14.3203 13.0003 14.3298 12.6898 14.5529 12.5872C14.9822 12.3895 14.9182 12.0348 14.9234 11.6894C14.9359 10.8644 14.9351 10.8631 14.1132 10.8427C13.8954 10.8373 13.6774 10.8419 13.4331 10.7496C14.7069 9.84656 16.0232 8.99671 17.2407 8.02326C18.183 7.26986 19.1749 7.05526 20.3401 7.16039C21.7069 7.2837 23.0838 7.29439 24.4566 7.35393C24.5232 7.5492 24.3472 7.56987 24.2562 7.63339C23.6065 8.08675 22.9563 8.53993 22.296 8.97754C21.983 9.18495 21.8519 9.3648 22.1149 9.73898C22.3954 10.1381 22.6119 10.5904 22.735 11.1266C20.6008 10.3 18.8735 10.7557 17.5278 12.6353Z" fill="white"></path><path d="M20.7052 16.5659C19.1853 16.5621 18.0117 15.3968 18.0211 13.9008C18.0301 12.4539 19.2792 11.2466 20.763 11.2507C22.257 11.2547 23.4454 12.4609 23.4234 13.9509C23.4024 15.3737 22.1593 16.5696 20.7052 16.5659Z" fill="white"></path><path d="M30.7711 35.293C30.65 34.4313 30.3341 33.6212 30.0942 32.7921C29.7597 31.6362 29.3735 30.4954 29.0175 29.3456C28.723 28.3944 28.4481 27.4371 28.15 26.487C27.7661 25.2637 27.9356 23.9506 29.1785 23.0751C30.7911 21.9393 32.3155 20.6785 33.8809 19.4754C34.8613 18.722 35.8481 17.977 36.8298 17.2254C37.0066 17.0901 37.1729 16.9411 37.36 16.7852C37.1943 16.6031 37.006 16.6705 36.8458 16.6699C35.0819 16.6633 33.318 16.6671 31.554 16.6649C31.0289 16.6643 30.9775 16.5825 31.2192 16.1131C31.4488 15.6671 31.6173 15.1948 31.7113 14.7099C31.7768 14.3717 31.9269 14.3044 32.2318 14.3004C35.1111 14.2623 37.9901 14.2179 40.8696 14.3021C41.3684 14.3167 41.785 14.4545 41.9612 14.9349C42.1557 15.4652 42.1808 16.0151 41.7527 16.4738C41.2005 17.0656 40.5166 17.5008 39.8824 17.9921C38.7803 18.8459 37.6833 19.7053 36.5892 20.5693C35.154 21.7026 33.6789 22.7853 32.2245 23.8944C31.7912 24.2248 31.382 24.5878 30.9391 24.9042C30.5124 25.2092 30.4481 25.6216 30.5794 26.0609C30.9865 27.4227 31.4304 28.7734 31.8481 30.132C32.2022 31.2835 32.5343 32.4417 32.8859 33.594C33.3262 35.0366 33.7325 36.4892 34.173 37.9319C34.4592 38.8693 34.3683 39.4637 33.5993 39.8629C32.9576 40.196 32.4353 39.8629 31.9646 39.4944C29.3456 37.4441 26.6732 35.4656 23.9886 33.5028C23.0667 32.8288 22.167 32.1242 21.2408 31.4562C20.9029 31.2126 20.8806 31.0551 21.2158 30.7825C21.64 30.4375 22.0236 30.0409 22.4112 29.653C22.5899 29.4742 22.7237 29.4401 22.9452 29.6088C24.6815 30.9323 26.4283 32.2419 28.1709 33.5571C28.9136 34.1178 29.6532 34.6825 30.3958 35.2433C30.4871 35.3122 30.592 35.3553 30.7123 35.3391C30.7321 35.3858 30.7417 35.4727 30.8102 35.4286C30.8667 35.3922 30.8192 35.3297 30.7711 35.293Z" fill="#F39F5F"></path><path d="M5.48755 17.2868C5.7287 17.6474 6.1458 17.7765 6.46729 18.0313C6.75894 18.4623 7.20186 18.7276 7.60114 19.033C9.3347 20.3591 11.0676 21.6871 12.8315 22.9721C13.5927 23.5267 14.0664 24.2088 14.196 25.136C14.2564 25.5682 14.0989 25.9753 13.9928 26.3706C13.719 27.3913 13.3733 28.3931 13.0472 29.3995C12.9142 29.8098 12.612 30.1133 12.3358 30.4272C11.4661 31.4156 10.596 32.4042 9.60252 33.2738C9.55465 33.3157 9.50647 33.3619 9.45009 33.3884C9.33786 33.4412 9.23949 33.6223 9.12026 33.5348C9.00001 33.4466 9.09514 33.2853 9.13933 33.1574C9.70538 31.5192 10.2824 29.8846 10.8303 28.2403C11.0889 27.4643 11.3867 26.7016 11.5764 25.9C11.6665 25.5191 11.5619 25.279 11.31 25.0459C10.5398 24.3331 9.67142 23.7435 8.84721 23.0991C7.28202 21.8753 5.69235 20.6829 4.11604 19.4733C2.97094 18.5946 1.83676 17.7016 0.686225 16.8301C0.127471 16.4069 -0.10931 15.8851 0.0473773 15.1915C0.171764 14.6408 0.534576 14.3196 1.09974 14.3133C2.0057 14.3032 2.91185 14.3122 3.81787 14.3071C6.63238 14.2913 9.44697 14.279 12.2613 14.2483C12.7061 14.2434 12.9517 14.3415 13.1026 14.823C13.3274 15.5407 13.8584 16.0804 14.5678 16.6419C11.1906 16.6419 7.94735 16.6419 4.70412 16.6419C4.9322 16.9575 5.14092 17.2178 5.48755 17.2868Z" fill="#F39F5F"></path><path d="M21.1247 5.27199C21.0471 5.25308 20.9711 5.3294 20.9349 5.40475C20.838 5.60687 20.8501 5.85164 20.7352 6.04411C20.6394 6.20473 20.4659 6.30647 20.2859 6.35729C20.1058 6.4081 19.9167 6.41416 19.73 6.42446C19.3664 6.4445 19.0039 6.48184 18.6439 6.53624C18.4595 6.5641 18.2758 6.59645 18.093 6.63323C17.9068 6.67069 17.7529 6.75889 17.7727 6.512C17.8309 5.78923 18.0891 5.09252 18.3905 4.43912C18.7188 3.72748 19.1106 3.04567 19.4169 2.32431C19.6367 1.80663 19.8365 1.23698 20.2953 0.911773C20.7966 0.556513 21.5482 0.617121 21.9889 1.04516C22.2574 1.30602 22.4035 1.66473 22.5423 2.01244C23.0939 3.39415 23.6454 4.77585 24.197 6.15756C24.2301 6.24026 24.263 6.33457 24.2254 6.41531C24.1699 6.53479 24.0061 6.54338 23.8747 6.53413C23.253 6.49044 22.6313 6.44673 22.0095 6.40303C21.8957 6.39503 21.7778 6.3859 21.6776 6.33124C21.515 6.24256 21.4348 6.05479 21.3888 5.8754C21.3428 5.69601 21.317 5.50578 21.2163 5.35034C21.1967 5.31993 21.1726 5.28997 21.139 5.27655C21.1342 5.27467 21.1295 5.27316 21.1247 5.27199Z" fill="#F39F5F"></path><path d="M31.3228 5.19307C31.9125 4.10627 31.3083 3.32195 30.4423 2.60188C30.1962 2.3972 30.0904 2.12147 30.5947 2.03107C30.9882 1.96053 31.3671 1.76875 31.7598 1.74344C32.1903 1.71569 32.3827 1.49843 32.5427 1.15265C32.6843 0.846539 32.8712 0.561682 33.0313 0.26377C33.1979 -0.0461353 33.3719 -0.113921 33.5774 0.228523C33.8089 0.614185 34.0463 0.996392 34.2716 1.38563C34.3935 1.59627 34.5505 1.68693 34.8038 1.72451C35.2624 1.79255 35.709 1.93903 36.1627 2.04388C36.5227 2.12709 36.4621 2.30344 36.2769 2.51152C36.0416 2.77582 35.8266 3.06464 35.5599 3.29273C35.2539 3.5545 35.1519 3.85062 35.2215 4.23306C35.2851 4.58257 35.3448 4.9334 35.3866 5.28597C35.4047 5.43792 35.4564 5.628 35.2888 5.73007C35.1375 5.82225 34.9859 5.75412 34.8356 5.67105C34.4849 5.4772 34.1165 5.31447 33.7711 5.1121C33.5062 4.95688 33.2747 4.94007 33.0034 5.10048C32.6587 5.30426 32.2848 5.45842 31.9397 5.66161C31.7747 5.75874 31.6121 5.843 31.4477 5.74661C31.281 5.64891 31.383 5.45109 31.3228 5.19307Z" fill="#F39F5F"></path><path d="M26.6752 12.4466C26.7609 12.8534 26.4554 13.1123 26.2279 13.3937C25.9311 13.7608 25.5394 14.0219 25.1305 14.2509C24.9357 14.3601 24.7944 14.3721 24.714 14.0779C24.3065 12.5871 23.6585 11.1822 23.1123 9.74122C23.0085 9.46724 23.0185 9.34746 23.2614 9.19912C23.7392 8.90737 24.2253 8.6197 24.6612 8.27186C25.016 7.98882 25.1435 8.1817 25.2542 8.46433C25.6042 9.35859 25.9487 10.2552 26.2794 11.1567C26.4317 11.5718 26.7171 11.9472 26.6752 12.4466Z" fill="#F39F5F"></path></svg>