<svg width="43" height="40" viewBox="0 0 43 40" fill="none" xmlns="http://www.w3.org/2000/svg">
<path d="M5.48756 17.2868C8.72564 17.9822 11.9952 18.3911 15.3122 18.2906C17.4872 18.2248 19.6373 17.952 21.6854 17.1686C25.1443 15.8456 27.8349 13.5196 30.0767 10.6317C31.0612 9.36341 31.8848 7.98984 32.6165 6.56123C32.7082 6.3822 32.8105 6.20861 32.9535 6.04893C32.9205 7.05572 32.7392 8.03283 32.5026 8.9964C30.992 15.1467 28.5555 20.8735 24.5401 25.8275C20.8782 30.3454 16.6307 34.1992 11.3802 36.825C9.28979 37.8704 7.11896 38.7024 4.76412 38.943C3.7252 39.0491 2.6971 39.0024 1.66055 38.7647C1.69248 38.7207 1.71162 38.6631 1.74308 38.6553C4.98575 37.8525 7.69456 36.0915 10.1566 33.9152C13.6248 30.8493 16.0307 27.0995 17.2855 22.6292C17.3947 22.2401 17.643 21.788 17.4933 21.4613C17.3247 21.0933 16.779 21.2384 16.3996 21.1844C12.9589 20.6942 9.68362 19.6933 6.6058 18.0668C6.56483 18.0451 6.51368 18.0427 6.46729 18.0313C6.1458 17.7765 5.72871 17.6474 5.48756 17.2868Z" fill="#385469"/>
<path d="M17.5275 12.6353C17.3208 12.1687 17.2527 11.7234 17.1752 11.2872C17.1279 11.0209 17.0139 10.9358 16.7621 10.9375C16.3416 10.9404 15.9208 10.9268 15.5004 10.9107C15.305 10.9032 15.2037 10.9576 15.2003 11.1773C15.1951 11.5166 15.0272 11.9316 15.1672 12.1794C15.5026 12.7731 15.3444 13.2468 15.1719 13.8412C14.989 14.4713 15.1518 15.1831 15.3286 15.9257C14.7557 15.7101 14.3532 15.3928 14.0218 14.973C13.9034 14.8231 13.9215 14.6731 14.0198 14.5251C14.145 14.3368 14.2632 14.1422 14.4048 13.9667C14.6183 13.702 14.8563 13.4775 14.4739 13.1373C14.32 13.0003 14.3296 12.6898 14.5526 12.5872C14.982 12.3895 14.9179 12.0348 14.9232 11.6894C14.9357 10.8644 14.9348 10.8631 14.113 10.8427C13.8952 10.8373 13.6771 10.8419 13.4329 10.7496C14.7066 9.84656 16.023 8.99671 17.2405 8.02326C18.1828 7.26986 19.1746 7.05526 20.3398 7.16039C21.7066 7.2837 23.0836 7.29439 24.4564 7.35393C24.523 7.5492 24.347 7.56987 24.256 7.63339C23.6062 8.08675 22.9561 8.53993 22.2957 8.97754C21.9828 9.18495 21.8516 9.3648 22.1146 9.73898C22.3951 10.1381 22.6117 10.5904 22.7347 11.1266C20.6006 10.3 18.8732 10.7557 17.5275 12.6353Z" fill="#385469"/>
<path d="M20.705 16.5659C19.185 16.5621 18.0115 15.3968 18.0208 13.9008C18.0298 12.4539 19.2789 11.2466 20.7628 11.2507C22.2568 11.2547 23.4452 12.4609 23.4232 13.9509C23.4021 15.3737 22.1591 16.5696 20.705 16.5659Z" fill="#385469"/>
<path d="M30.771 35.293C30.65 34.4313 30.334 33.6212 30.0941 32.7921C29.7597 31.6362 29.3735 30.4954 29.0174 29.3456C28.7229 28.3944 28.448 27.4371 28.1499 26.487C27.766 25.2637 27.9356 23.9506 29.1785 23.0751C30.791 21.9393 32.3155 20.6785 33.8809 19.4754C34.8612 18.722 35.848 17.977 36.8298 17.2254C37.0065 17.0901 37.1728 16.9411 37.3599 16.7852C37.1942 16.6031 37.0059 16.6705 36.8458 16.6699C35.0819 16.6633 33.3179 16.6671 31.554 16.6649C31.0289 16.6643 30.9774 16.5825 31.2191 16.1131C31.4487 15.6671 31.6173 15.1948 31.7112 14.7099C31.7767 14.3717 31.9269 14.3044 32.2317 14.3004C35.111 14.2623 37.99 14.2179 40.8695 14.3021C41.3684 14.3167 41.785 14.4545 41.9611 14.9349C42.1557 15.4652 42.1807 16.0151 41.7527 16.4738C41.2004 17.0656 40.5166 17.5008 39.8823 17.9921C38.7803 18.8459 37.6832 19.7053 36.5891 20.5693C35.1539 21.7026 33.6789 22.7853 32.2245 23.8944C31.7912 24.2248 31.3819 24.5878 30.9391 24.9042C30.5123 25.2092 30.448 25.6216 30.5793 26.0609C30.9865 27.4227 31.4303 28.7734 31.8481 30.132C32.2021 31.2835 32.5342 32.4417 32.8859 33.594C33.3261 35.0366 33.7324 36.4892 34.1729 37.9319C34.4591 38.8693 34.3682 39.4637 33.5993 39.8629C32.9575 40.196 32.4353 39.8629 31.9646 39.4944C29.3456 37.4441 26.6732 35.4656 23.9886 33.5028C23.0666 32.8288 22.1669 32.1242 21.2407 31.4562C20.9029 31.2126 20.8805 31.0551 21.2158 30.7825C21.64 30.4375 22.0236 30.0409 22.4111 29.653C22.5899 29.4742 22.7237 29.4401 22.9451 29.6088C24.6814 30.9323 26.4283 32.2419 28.1708 33.5571C28.9135 34.1178 29.6531 34.6825 30.3957 35.2433C30.487 35.3122 30.592 35.3553 30.7122 35.3391C30.732 35.3858 30.7416 35.4727 30.8102 35.4286C30.8667 35.3922 30.8192 35.3297 30.771 35.293Z" fill="#F39F5F"/>
<path d="M5.48755 17.2868C5.7287 17.6474 6.1458 17.7765 6.46729 18.0313C6.75894 18.4623 7.20186 18.7276 7.60114 19.033C9.3347 20.3591 11.0676 21.6871 12.8315 22.9721C13.5927 23.5267 14.0664 24.2088 14.196 25.136C14.2564 25.5682 14.0989 25.9753 13.9928 26.3706C13.719 27.3913 13.3733 28.3931 13.0472 29.3995C12.9142 29.8098 12.612 30.1133 12.3358 30.4272C11.4661 31.4156 10.596 32.4042 9.60252 33.2738C9.55465 33.3157 9.50647 33.3619 9.45009 33.3884C9.33786 33.4412 9.23949 33.6223 9.12026 33.5348C9.00001 33.4466 9.09514 33.2853 9.13933 33.1574C9.70538 31.5192 10.2824 29.8846 10.8303 28.2403C11.0889 27.4643 11.3867 26.7016 11.5764 25.9C11.6665 25.5191 11.5619 25.279 11.31 25.0459C10.5398 24.3331 9.67142 23.7435 8.84721 23.0991C7.28202 21.8753 5.69235 20.6829 4.11604 19.4733C2.97094 18.5946 1.83676 17.7016 0.686225 16.8301C0.127471 16.4069 -0.10931 15.8851 0.0473773 15.1915C0.171764 14.6408 0.534576 14.3196 1.09974 14.3133C2.0057 14.3032 2.91185 14.3122 3.81787 14.3071C6.63238 14.2913 9.44697 14.279 12.2613 14.2483C12.7061 14.2434 12.9517 14.3415 13.1026 14.823C13.3274 15.5407 13.8584 16.0804 14.5678 16.6419C11.1906 16.6419 7.94735 16.6419 4.70412 16.6419C4.9322 16.9575 5.14092 17.2178 5.48755 17.2868Z" fill="#F39F5F"/>
<path d="M21.1248 5.27199C21.0473 5.25308 20.9712 5.3294 20.935 5.40475C20.8381 5.60687 20.8502 5.85164 20.7354 6.04411C20.6395 6.20473 20.466 6.30647 20.286 6.35729C20.1059 6.4081 19.9169 6.41416 19.7301 6.42446C19.3665 6.4445 19.004 6.48184 18.644 6.53624C18.4596 6.5641 18.2759 6.59645 18.0931 6.63323C17.907 6.67069 17.753 6.75889 17.7728 6.512C17.831 5.78923 18.0892 5.09252 18.3906 4.43912C18.7189 3.72748 19.1107 3.04567 19.417 2.32431C19.6368 1.80663 19.8366 1.23698 20.2955 0.911773C20.7967 0.556513 21.5483 0.617121 21.989 1.04516C22.2576 1.30602 22.4036 1.66473 22.5424 2.01244C23.094 3.39415 23.6456 4.77585 24.1972 6.15756C24.2302 6.24026 24.2631 6.33457 24.2256 6.41531C24.17 6.53479 24.0063 6.54338 23.8748 6.53413C23.2531 6.49044 22.6314 6.44673 22.0097 6.40303C21.8958 6.39503 21.7779 6.3859 21.6777 6.33124C21.5152 6.24256 21.4349 6.05479 21.3889 5.8754C21.3429 5.69601 21.3171 5.50578 21.2165 5.35034C21.1968 5.31993 21.1728 5.28997 21.1391 5.27655C21.1344 5.27467 21.1296 5.27316 21.1248 5.27199Z" fill="#F39F5F"/>
<path d="M31.3226 5.19307C31.9123 4.10627 31.3081 3.32195 30.4422 2.60188C30.196 2.3972 30.0902 2.12147 30.5945 2.03107C30.9881 1.96053 31.367 1.76875 31.7596 1.74344C32.1902 1.71569 32.3826 1.49843 32.5425 1.15265C32.6841 0.846539 32.8711 0.561682 33.0312 0.26377C33.1977 -0.0461353 33.3718 -0.113921 33.5773 0.228523C33.8088 0.614185 34.0462 0.996392 34.2715 1.38563C34.3934 1.59627 34.5503 1.68693 34.8036 1.72451C35.2623 1.79255 35.7089 1.93903 36.1625 2.04388C36.5226 2.12709 36.4619 2.30344 36.2767 2.51152C36.0415 2.77582 35.8264 3.06464 35.5598 3.29273C35.2538 3.5545 35.1518 3.85062 35.2214 4.23306C35.2849 4.58257 35.3447 4.9334 35.3865 5.28597C35.4045 5.43792 35.4562 5.628 35.2887 5.73007C35.1374 5.82225 34.9858 5.75412 34.8355 5.67105C34.4847 5.4772 34.1163 5.31447 33.7709 5.1121C33.506 4.95688 33.2746 4.94007 33.0032 5.10048C32.6586 5.30426 32.2846 5.45842 31.9395 5.66161C31.7746 5.75874 31.612 5.843 31.4475 5.74661C31.2809 5.64891 31.3829 5.45109 31.3226 5.19307Z" fill="#F39F5F"/>
<path d="M26.6754 12.4466C26.7611 12.8534 26.4556 13.1123 26.2281 13.3937C25.9313 13.7608 25.5396 14.0219 25.1307 14.2509C24.9359 14.3601 24.7945 14.3721 24.7142 14.0779C24.3067 12.5871 23.6586 11.1822 23.1125 9.74122C23.0087 9.46724 23.0186 9.34746 23.2616 9.19912C23.7394 8.90737 24.2255 8.6197 24.6614 8.27186C25.0162 7.98882 25.1437 8.1817 25.2543 8.46433C25.6043 9.35859 25.9488 10.2552 26.2796 11.1567C26.4319 11.5718 26.7173 11.9472 26.6754 12.4466Z" fill="#F39F5F"/>
</svg>
